<?xml version="1.0" encoding="UTF-8"?>
<svg width="9px" height="15px" viewBox="0 0 9 15" version="1.1" xmlns="http://www.w3.org/2000/svg" xmlns:xlink="http://www.w3.org/1999/xlink">
    <!-- Generator: Sketch 52 (66869) - http://www.bohemiancoding.com/sketch -->
    <title>dollar-symbol</title>
    <desc>Created with Sketch.</desc>
    <g id="Development" stroke="none" stroke-width="1" fill="none" fill-rule="evenodd">
        <g id="Page-3" transform="translate(-1066.000000, -399.000000)" fill="#409052">
            <g id="Section---1" transform="translate(130.000000, 140.000000)">
                <g id="Group---1" transform="translate(1.000000, 90.000000)">
                    <g id="USD" transform="translate(29.000000, 148.000000)">
                        <g id="arrow-s" transform="translate(891.500000, 12.000000)">
                            <path d="M22.8875295,17.991506 C22.8134699,17.7499824 22.7230989,17.5399454 22.6177318,17.361142 C22.5118385,17.1828445 22.3602992,17.008467 22.1629825,16.838136 C21.966192,16.6676785 21.7888701,16.5303515 21.6316744,16.4261549 C21.4744788,16.3214525 21.2586143,16.2048637 20.9842125,16.0753767 C20.7098108,15.9465219 20.4930255,15.8501654 20.3326728,15.7869393 C20.1728462,15.7237133 19.9410649,15.63722 19.6385126,15.527586 C19.3697672,15.4288269 19.1698196,15.3532085 19.037749,15.3008573 C18.9067307,15.2485061 18.7336182,15.1744052 18.5193322,15.0781751 C18.3050463,14.9823244 18.1446936,14.8968427 18.0393265,14.8227418 C17.9335647,14.7486408 17.8204365,14.6582275 17.700731,14.5511226 C17.5804993,14.4438911 17.4963109,14.3298313 17.4473763,14.2088166 C17.3990995,14.0881813 17.3745007,13.9564181 17.3745007,13.8131479 C17.3745007,13.4397347 17.5460347,13.1348586 17.8893658,12.8982666 C18.2320391,12.6621805 18.6750809,12.5442006 19.2180965,12.5442006 C19.4581651,12.5442006 19.7027063,12.5758137 19.9514569,12.6390397 C20.1995498,12.7022658 20.4127833,12.7733319 20.5895791,12.8533761 C20.7674272,12.9329145 20.9343572,13.0207987 21.0916844,13.1171553 C21.24888,13.213006 21.3604297,13.2860953 21.4262019,13.3354117 C21.4919742,13.3848545 21.5335422,13.4179849 21.5505115,13.4342972 C21.6249656,13.489051 21.7015245,13.5083982 21.7817667,13.4920859 C21.8675336,13.4866484 21.9333059,13.4426431 21.9790834,13.3601963 L22.6737697,12.1568777 C22.7420413,12.0467379 22.7277029,11.9425413 22.6306231,11.8436558 C22.5961585,11.8106517 22.5535381,11.7720838 22.5021042,11.7280785 C22.4508018,11.6841996 22.3392521,11.6046612 22.1675866,11.489084 C21.9960526,11.3740125 21.8146528,11.2707011 21.6235187,11.179782 C21.4318584,11.0894952 21.1831078,10.9975645 20.8773984,10.9042428 C20.5715575,10.8104153 20.2555877,10.747695 19.9298836,10.7145646 L19.9298836,9.26377917 C19.9298836,9.18676981 19.9041009,9.12354374 19.8527985,9.07410095 C19.8013646,9.02478462 19.7355924,9 19.6554818,9 L18.4977589,9 C18.4236994,9 18.3595057,9.02617559 18.3050463,9.07852678 C18.2505869,9.13037216 18.2233572,9.19220726 18.2233572,9.26377917 L18.2233572,10.7471892 C17.3262239,10.9120828 16.597599,11.2800586 16.0369565,11.8516222 C15.4773663,12.4231859 15.196782,13.0879448 15.196782,13.8461519 C15.196782,14.0714896 15.2215123,14.285826 15.2697892,14.4887817 C15.3185922,14.6923696 15.378708,14.8750929 15.4501366,15.0370781 C15.5215653,15.1991898 15.622723,15.3586459 15.7542674,15.5153201 C15.8858119,15.6718679 16.010253,15.8061601 16.1273276,15.9188289 C16.2445337,16.0314978 16.3976515,16.148466 16.5862862,16.2691014 C16.7747895,16.3901161 16.9361945,16.4878636 17.0702383,16.5619645 C17.2049399,16.6360655 17.3831826,16.7210413 17.6061505,16.8173978 C17.8292499,16.9131221 18.0049933,16.9862114 18.1333807,17.0356542 C18.2624259,17.085097 18.4381693,17.1537605 18.6611372,17.2416448 C18.9694774,17.357222 19.1981017,17.4461179 19.3471416,17.509344 C19.4956553,17.57257 19.6841585,17.6604543 19.9129144,17.7731231 C20.1415386,17.885792 20.3084686,17.9889769 20.4143619,18.0822986 C20.5202552,18.1757467 20.6157565,18.2908182 20.701655,18.428651 C20.787422,18.5659781 20.8305686,18.7111451 20.8305686,18.8652903 C20.8305686,19.2994005 20.6548252,19.6343722 20.3028122,19.8704583 C19.9514569,20.1070503 19.5444583,20.2251566 19.0814218,20.2251566 C18.8697667,20.2251566 18.6585063,20.2034068 18.4468512,20.1588957 C17.7038881,20.0161312 17.0095963,19.6729401 16.363713,19.1290694 L16.3462176,19.1122513 C16.2949152,19.0519336 16.2259859,19.0272755 16.1407451,19.0381503 C16.0493217,19.049531 15.9835495,19.0821557 15.9434284,19.1374153 L15.0601073,20.2498148 C14.9743403,20.3599546 14.9805229,20.4726234 15.0776027,20.5876949 C15.1058847,20.6208254 15.1562663,20.6701417 15.2275634,20.7364026 C15.298992,20.8020313 15.432115,20.9053427 15.6264062,21.0455781 C15.8205659,21.1858135 16.0318263,21.3171973 16.2604506,21.4412468 C16.4890749,21.5646641 16.7793935,21.6866905 17.1308803,21.8077052 C17.4823672,21.9287198 17.8467453,22.0136957 18.2244095,22.0631385 L18.2244095,23.5054516 C18.2244095,23.57715 18.251113,23.6388586 18.3055725,23.6912098 C18.3600319,23.7430552 18.4242256,23.7692308 18.4988113,23.7692308 L19.656008,23.7692308 C19.7361186,23.7692308 19.8018908,23.7445726 19.8533247,23.6951298 C19.9046271,23.6458135 19.9302782,23.5825874 19.9302782,23.5054516 L19.9302782,22.0631385 C20.8393821,21.920374 21.5782674,21.5454434 22.1470656,20.9378409 C22.7153378,20.3308706 23,19.607185 23,18.7665311 C22.9994738,18.4918771 22.9625098,18.2335354 22.8875295,17.991506 Z" id="dollar-symbol"></path>
                        </g>
                    </g>
                </g>
            </g>
        </g>
    </g>
</svg>