<?xml version="1.0" encoding="UTF-8"?>
<svg width="8px" height="15px" viewBox="0 0 8 15" version="1.1" xmlns="http://www.w3.org/2000/svg" xmlns:xlink="http://www.w3.org/1999/xlink">
    <!-- Generator: Sketch 52 (66869) - http://www.bohemiancoding.com/sketch -->
    <title>dollar-symbol</title>
    <desc>Created with Sketch.</desc>
    <g id="Development" stroke="none" stroke-width="1" fill="none" fill-rule="evenodd">
        <g id="Page-3" transform="translate(-1164.000000, -399.000000)" fill="#CC4D54">
            <g id="Section---1" transform="translate(130.000000, 140.000000)">
                <g id="Group---1" transform="translate(1.000000, 90.000000)">
                    <g id="USD" transform="translate(29.000000, 148.000000)">
                        <g id="arrow-s" transform="translate(993.000000, 12.000000)">
                            <path d="M18.8875295,17.991506 C18.8134699,17.7499824 18.7230989,17.5399454 18.6177318,17.361142 C18.5118385,17.1828445 18.3602992,17.008467 18.1629825,16.838136 C17.966192,16.6676785 17.7888701,16.5303515 17.6316744,16.4261549 C17.4744788,16.3214525 17.2586143,16.2048637 16.9842125,16.0753767 C16.7098108,15.9465219 16.4930255,15.8501654 16.3326728,15.7869393 C16.1728462,15.7237133 15.9410649,15.63722 15.6385126,15.527586 C15.3697672,15.4288269 15.1698196,15.3532085 15.037749,15.3008573 C14.9067307,15.2485061 14.7336182,15.1744052 14.5193322,15.0781751 C14.3050463,14.9823244 14.1446936,14.8968427 14.0393265,14.8227418 C13.9335647,14.7486408 13.8204365,14.6582275 13.700731,14.5511226 C13.5804993,14.4438911 13.4963109,14.3298313 13.4473763,14.2088166 C13.3990995,14.0881813 13.3745007,13.9564181 13.3745007,13.8131479 C13.3745007,13.4397347 13.5460347,13.1348586 13.8893658,12.8982666 C14.2320391,12.6621805 14.6750809,12.5442006 15.2180965,12.5442006 C15.4581651,12.5442006 15.7027063,12.5758137 15.9514569,12.6390397 C16.1995498,12.7022658 16.4127833,12.7733319 16.5895791,12.8533761 C16.7674272,12.9329145 16.9343572,13.0207987 17.0916844,13.1171553 C17.24888,13.213006 17.3604297,13.2860953 17.4262019,13.3354117 C17.4919742,13.3848545 17.5335422,13.4179849 17.5505115,13.4342972 C17.6249656,13.489051 17.7015245,13.5083982 17.7817667,13.4920859 C17.8675336,13.4866484 17.9333059,13.4426431 17.9790834,13.3601963 L18.6737697,12.1568777 C18.7420413,12.0467379 18.7277029,11.9425413 18.6306231,11.8436558 C18.5961585,11.8106517 18.5535381,11.7720838 18.5021042,11.7280785 C18.4508018,11.6841996 18.3392521,11.6046612 18.1675866,11.489084 C17.9960526,11.3740125 17.8146528,11.2707011 17.6235187,11.179782 C17.4318584,11.0894952 17.1831078,10.9975645 16.8773984,10.9042428 C16.5715575,10.8104153 16.2555877,10.747695 15.9298836,10.7145646 L15.9298836,9.26377917 C15.9298836,9.18676981 15.9041009,9.12354374 15.8527985,9.07410095 C15.8013646,9.02478462 15.7355924,9 15.6554818,9 L14.4977589,9 C14.4236994,9 14.3595057,9.02617559 14.3050463,9.07852678 C14.2505869,9.13037216 14.2233572,9.19220726 14.2233572,9.26377917 L14.2233572,10.7471892 C13.3262239,10.9120828 12.597599,11.2800586 12.0369565,11.8516222 C11.4773663,12.4231859 11.196782,13.0879448 11.196782,13.8461519 C11.196782,14.0714896 11.2215123,14.285826 11.2697892,14.4887817 C11.3185922,14.6923696 11.378708,14.8750929 11.4501366,15.0370781 C11.5215653,15.1991898 11.622723,15.3586459 11.7542674,15.5153201 C11.8858119,15.6718679 12.010253,15.8061601 12.1273276,15.9188289 C12.2445337,16.0314978 12.3976515,16.148466 12.5862862,16.2691014 C12.7747895,16.3901161 12.9361945,16.4878636 13.0702383,16.5619645 C13.2049399,16.6360655 13.3831826,16.7210413 13.6061505,16.8173978 C13.8292499,16.9131221 14.0049933,16.9862114 14.1333807,17.0356542 C14.2624259,17.085097 14.4381693,17.1537605 14.6611372,17.2416448 C14.9694774,17.357222 15.1981017,17.4461179 15.3471416,17.509344 C15.4956553,17.57257 15.6841585,17.6604543 15.9129144,17.7731231 C16.1415386,17.885792 16.3084686,17.9889769 16.4143619,18.0822986 C16.5202552,18.1757467 16.6157565,18.2908182 16.701655,18.428651 C16.787422,18.5659781 16.8305686,18.7111451 16.8305686,18.8652903 C16.8305686,19.2994005 16.6548252,19.6343722 16.3028122,19.8704583 C15.9514569,20.1070503 15.5444583,20.2251566 15.0814218,20.2251566 C14.8697667,20.2251566 14.6585063,20.2034068 14.4468512,20.1588957 C13.7038881,20.0161312 13.0095963,19.6729401 12.363713,19.1290694 L12.3462176,19.1122513 C12.2949152,19.0519336 12.2259859,19.0272755 12.1407451,19.0381503 C12.0493217,19.049531 11.9835495,19.0821557 11.9434284,19.1374153 L11.0601073,20.2498148 C10.9743403,20.3599546 10.9805229,20.4726234 11.0776027,20.5876949 C11.1058847,20.6208254 11.1562663,20.6701417 11.2275634,20.7364026 C11.298992,20.8020313 11.432115,20.9053427 11.6264062,21.0455781 C11.8205659,21.1858135 12.0318263,21.3171973 12.2604506,21.4412468 C12.4890749,21.5646641 12.7793935,21.6866905 13.1308803,21.8077052 C13.4823672,21.9287198 13.8467453,22.0136957 14.2244095,22.0631385 L14.2244095,23.5054516 C14.2244095,23.57715 14.251113,23.6388586 14.3055725,23.6912098 C14.3600319,23.7430552 14.4242256,23.7692308 14.4988113,23.7692308 L15.656008,23.7692308 C15.7361186,23.7692308 15.8018908,23.7445726 15.8533247,23.6951298 C15.9046271,23.6458135 15.9302782,23.5825874 15.9302782,23.5054516 L15.9302782,22.0631385 C16.8393821,21.920374 17.5782674,21.5454434 18.1470656,20.9378409 C18.7153378,20.3308706 19,19.607185 19,18.7665311 C18.9994738,18.4918771 18.9625098,18.2335354 18.8875295,17.991506 Z" id="dollar-symbol"></path>
                        </g>
                    </g>
                </g>
            </g>
        </g>
    </g>
</svg>