<?xml version="1.0" encoding="UTF-8"?>
<svg width="17px" height="19px" viewBox="0 0 17 19" version="1.1" xmlns="http://www.w3.org/2000/svg" xmlns:xlink="http://www.w3.org/1999/xlink">
    <!-- Generator: Sketch 52 (66869) - http://www.bohemiancoding.com/sketch -->
    <title>euro</title>
    <desc>Created with Sketch.</desc>
    <g id="Development" stroke="none" stroke-width="1" fill="none" fill-rule="evenodd">
        <g id="Page-2" transform="translate(-871.000000, -692.000000)" fill="#C1C5CB" stroke="#F2F4F7" stroke-width="0.7">
            <g id="Group--2" transform="translate(131.000000, 588.000000)">
                <g id="Drop---Euro" transform="translate(741.000000, 105.000000)">
                    <path d="M14.9199753,15.600124 C14.7230836,15.1204875 14.5226368,14.6407146 14.3038226,14.1683459 C14.1106681,13.7467618 13.8626392,13.6232527 13.3995789,13.7286828 C12.8125953,13.8631392 12.236459,14.0411121 11.649521,14.161078 C10.5154335,14.3972396 9.37797331,14.4190888 8.25847039,14.066686 C6.85465941,13.6267958 6.10729106,12.6131042 5.64796808,11.3048351 L9.45449675,11.3048351 C9.75343498,11.3048351 9.99412605,11.0649487 9.99412605,10.7670098 L9.99412605,9.57143877 C9.99412605,9.27336364 9.75343498,9.03361348 9.45449675,9.03361348 L5.28335369,9.03361348 C5.28335369,8.69933508 5.27961639,8.3794108 5.28335369,8.05966822 L9.45449675,8.05966822 C9.75343498,8.05966822 9.99412605,7.81978179 9.99412605,7.52184294 L9.99412605,6.32627187 C9.99412605,6.02833302 9.75343498,5.78844659 9.45449675,5.78844659 L5.80835283,5.78844659 C5.80835283,5.77386535 5.80835283,5.75932953 5.8156907,5.75206162 C6.25309124,4.75999201 6.89116642,3.96420137 7.9376553,3.54988512 C9.1554218,3.07024854 10.3988024,3.08124125 11.653076,3.33925203 C12.2473518,3.45903626 12.8307804,3.64073399 13.4250563,3.77519031 C13.8589019,3.87335251 14.1106681,3.74611867 14.2965303,3.34279514 C14.5115616,2.87773979 14.708499,2.40518942 14.9053908,1.92914137 C15.0914352,1.48216495 14.9819598,1.16614717 14.5590982,0.918992833 C14.4533601,0.857215605 14.3438846,0.806294816 14.2308086,0.762641936 C12.4734583,0.0795038932 10.661416,-0.174918354 8.7908074,0.123156773 C7.47459503,0.333971565 6.24579895,0.784491088 5.1849078,1.60585568 C3.84659068,2.63780794 2.978854,4.00054092 2.47573172,5.60320575 L2.41379285,5.78844659 L0.5396293,5.78844659 C0.240691075,5.78844659 0,6.02833302 0,6.32627187 L0,7.52184294 C0,7.81978179 0.240691075,8.05966822 0.5396293,8.05966822 L2.01622643,8.05966822 L2.01622643,9.03361348 L0.5396293,9.03361348 C0.240691075,9.03361348 0,9.27336364 0,9.57143877 L0,10.7670098 C0,11.0649487 0.240691075,11.3048351 0.5396293,11.3048351 L2.31890195,11.3048351 C2.45385486,11.7408188 2.56688532,12.1842521 2.73816293,12.6021115 C3.63885163,14.767903 5.14840079,16.3087906 7.41994845,17.0428494 C9.29766699,17.6497199 11.1900157,17.6314592 13.0823188,17.1118946 C13.5745938,16.9773928 14.0631315,16.802963 14.5299291,16.5886051 C14.9819598,16.3813789 15.0987275,16.0325192 14.9199753,15.600124 Z" id="euro"></path>
                </g>
            </g>
        </g>
    </g>
</svg>