<?xml version="1.0" encoding="UTF-8"?>
<svg width="14px" height="26px" viewBox="0 0 14 26" version="1.1" xmlns="http://www.w3.org/2000/svg" xmlns:xlink="http://www.w3.org/1999/xlink">
    <!-- Generator: Sketch 52 (66869) - http://www.bohemiancoding.com/sketch -->
    <title>dollar-symbol</title>
    <desc>Created with Sketch.</desc>
    <g id="Development" stroke="none" stroke-width="1" fill="none" fill-rule="evenodd">
        <g id="Page-1" transform="translate(-643.000000, -632.000000)" fill="#BEC4CE">
            <path d="M656.803177,647.828797 C656.673572,647.403615 656.515423,647.033862 656.331031,646.719094 C656.145717,646.405216 655.880524,646.098239 655.535219,645.798385 C655.190836,645.498309 654.880523,645.256556 654.60543,645.073127 C654.330338,644.888807 653.952575,644.683562 653.472372,644.455611 C652.992169,644.228773 652.612795,644.059145 652.332177,643.947841 C652.052481,643.836537 651.646864,643.684273 651.117397,643.491271 C650.647093,643.317414 650.297184,643.184294 650.066061,643.092134 C649.836779,642.999974 649.533832,642.869526 649.158831,642.700121 C648.783831,642.531384 648.503214,642.3809 648.318821,642.250452 C648.133738,642.120003 647.935764,641.960838 647.726279,641.772289 C647.515874,641.583517 647.368544,641.382724 647.282909,641.169688 C647.198424,640.957319 647.155376,640.725361 647.155376,640.473146 C647.155376,639.815783 647.455561,639.279074 648.05639,638.862574 C648.656068,638.446964 649.431392,638.23927 650.381669,638.23927 C650.801789,638.23927 651.229736,638.294922 651.66505,638.406226 C652.099212,638.51753 652.472371,638.642636 652.781763,638.783548 C653.092998,638.923568 653.385125,639.078281 653.660448,639.247909 C653.93554,639.416646 654.130752,639.545314 654.245853,639.632131 C654.360955,639.719171 654.433699,639.777494 654.463395,639.806211 C654.59369,639.9026 654.727668,639.936659 654.868092,639.907943 C655.018184,639.898371 655.133285,639.820903 655.213396,639.675762 L656.429097,637.55742 C656.548572,637.363528 656.52348,637.180099 656.35359,637.006019 C656.293277,636.947918 656.218692,636.880023 656.128682,636.802555 C656.038903,636.72531 655.843691,636.585289 655.543277,636.381825 C655.243092,636.179251 654.925642,635.99738 654.591158,635.837325 C654.255752,635.678382 653.820439,635.516546 653.285447,635.352261 C652.750226,635.187085 652.197278,635.076671 651.627296,635.018348 L651.627296,632.464361 C651.627296,632.328793 651.582177,632.217488 651.492397,632.130449 C651.402388,632.043631 651.287287,632 651.147093,632 L649.121078,632 C648.991474,632 648.879135,632.04608 648.783831,632.13824 C648.688527,632.229509 648.640875,632.338365 648.640875,632.464361 L648.640875,635.075781 C647.070892,635.366062 645.795798,636.013853 644.814674,637.020043 C643.835391,638.026234 643.344368,639.196486 643.344368,640.531247 C643.344368,640.927935 643.387647,641.305256 643.472131,641.662543 C643.557536,642.020942 643.662739,642.342612 643.787739,642.627773 C643.912739,642.913157 644.089765,643.193866 644.319968,643.469678 C644.550171,643.745267 644.767943,643.981678 644.972823,644.180022 C645.177934,644.378366 645.44589,644.584279 645.776001,644.796647 C646.105882,645.009683 646.38834,645.18176 646.622917,645.312208 C646.858645,645.442657 647.17057,645.59225 647.560763,645.761877 C647.951187,645.930392 648.258738,646.05906 648.483416,646.1461 C648.709245,646.23314 649.016796,646.354016 649.40699,646.508729 C649.946585,646.712193 650.346678,646.868687 650.607498,646.979991 C650.867397,647.091295 651.197277,647.246008 651.5976,647.444352 C651.997693,647.642696 652.28982,647.824345 652.475133,647.98863 C652.660447,648.153137 652.827574,648.355711 652.977896,648.598354 C653.127988,648.840107 653.203495,649.095662 653.203495,649.367021 C653.203495,650.131236 652.895944,650.720926 652.279921,651.136536 C651.66505,651.553036 650.952802,651.760953 650.142488,651.760953 C649.772092,651.760953 649.402386,651.722664 649.03199,651.644306 C647.731804,651.392981 646.516794,650.788822 645.386498,649.831383 L645.355881,649.801776 C645.266102,649.695591 645.145475,649.652183 644.996304,649.671327 C644.836313,649.691362 644.721212,649.748795 644.651,649.846075 L643.105188,651.804361 C642.955095,651.998253 642.965915,652.196598 643.135805,652.399171 C643.185298,652.457495 643.273466,652.544312 643.398236,652.660959 C643.523236,652.776493 643.756201,652.958364 644.096211,653.205236 C644.43599,653.452109 644.805696,653.683399 645.205788,653.901778 C645.605881,654.119044 646.113939,654.333861 646.729041,654.546898 C647.344143,654.759934 647.981804,654.909527 648.642717,654.996567 L648.642717,657.535639 C648.642717,657.661858 648.689448,657.770491 648.784752,657.862651 C648.880056,657.95392 648.992395,658 649.12292,658 L651.148014,658 C651.288208,658 651.403309,657.956591 651.493318,657.869551 C651.583097,657.782734 651.627987,657.67143 651.627987,657.535639 L651.627987,654.996567 C653.218919,654.745242 654.511968,654.085208 655.507365,653.015574 C656.501841,651.947053 657,650.673065 657,649.193164 C656.999079,648.709659 656.934392,648.25487 656.803177,647.828797 Z" id="dollar-symbol"></path>
        </g>
    </g>
</svg>