<?xml version="1.0" encoding="UTF-8"?>
<svg width="22px" height="25px" viewBox="0 0 22 25" version="1.1" xmlns="http://www.w3.org/2000/svg" xmlns:xlink="http://www.w3.org/1999/xlink">
    <!-- Generator: Sketch 52 (66869) - http://www.bohemiancoding.com/sketch -->
    <title>euro</title>
    <desc>Created with Sketch.</desc>
    <g id="Development" stroke="none" stroke-width="1" fill="none" fill-rule="evenodd">
        <g id="Page-1" transform="translate(-1216.000000, -632.000000)" fill="#BEC4CE" stroke="#FFFFFF" stroke-width="0.7">
            <path d="M1236.8933,653.50302 C1236.63078,652.872641 1236.36352,652.242082 1236.07176,651.621255 C1235.81422,651.067173 1235.48352,650.904846 1234.86611,651.043412 C1234.08346,651.220126 1233.31528,651.454033 1232.53269,651.611703 C1231.02058,651.922086 1229.50396,651.950802 1228.01129,651.487645 C1226.13955,650.909503 1225.14305,649.577223 1224.53062,647.857783 L1229.606,647.857783 C1230.00458,647.857783 1230.3255,647.542504 1230.3255,647.150927 L1230.3255,645.579605 C1230.3255,645.187849 1230.00458,644.872749 1229.606,644.872749 L1224.04447,644.872749 C1224.04447,644.433412 1224.03949,644.01294 1224.04447,643.592707 L1229.606,643.592707 C1230.00458,643.592707 1230.3255,643.277428 1230.3255,642.885851 L1230.3255,641.314529 C1230.3255,640.922952 1230.00458,640.607673 1229.606,640.607673 L1224.74447,640.607673 C1224.74447,640.588509 1224.74447,640.569405 1224.75425,640.559852 C1225.33745,639.255989 1226.18822,638.210093 1227.58354,637.665563 C1229.20723,637.035184 1230.86507,637.049631 1232.53743,637.388731 C1233.3298,637.546162 1234.10771,637.784965 1234.90008,637.961679 C1235.47854,638.090692 1235.81422,637.92347 1236.06204,637.393388 C1236.34875,636.782172 1236.61133,636.161106 1236.87385,635.535443 C1237.12191,634.947988 1236.97595,634.532651 1236.41213,634.207819 C1236.27115,634.126626 1236.12518,634.059702 1235.97441,634.002329 C1233.63128,633.104491 1231.21522,632.770107 1228.72108,633.161863 C1226.96613,633.438934 1225.32773,634.031045 1223.91321,635.110553 C1222.12879,636.466833 1220.97181,638.257854 1220.30098,640.364213 L1220.21839,640.607673 L1217.71951,640.607673 C1217.32092,640.607673 1217,640.922952 1217,641.314529 L1217,642.885851 C1217,643.277428 1217.32092,643.592707 1217.71951,643.592707 L1219.6883,643.592707 L1219.6883,644.872749 L1217.71951,644.872749 C1217.32092,644.872749 1217,645.187849 1217,645.579605 L1217,647.150927 C1217,647.542504 1217.32092,647.857783 1217.71951,647.857783 L1220.09187,647.857783 C1220.27181,648.43079 1220.42251,649.013589 1220.65088,649.562775 C1221.8518,652.409244 1223.86453,654.434411 1226.89326,655.399174 C1229.39689,656.196775 1231.92002,656.172775 1234.44309,655.489919 C1235.09946,655.313145 1235.75084,655.083894 1236.37324,654.802167 C1236.97595,654.529812 1237.13164,654.071311 1236.8933,653.50302 Z" id="euro"></path>
        </g>
    </g>
</svg>