<?xml version="1.0" encoding="UTF-8"?>
<svg width="24px" height="24px" viewBox="0 0 24 24" version="1.1" xmlns="http://www.w3.org/2000/svg" xmlns:xlink="http://www.w3.org/1999/xlink">
    <!-- Generator: Sketch 52 (66869) - http://www.bohemiancoding.com/sketch -->
    <title>Icon - Bank</title>
    <desc>Created with Sketch.</desc>
    <g id="Development" stroke="none" stroke-width="1" fill="none" fill-rule="evenodd">
        <g id="Page-5" transform="translate(-161.000000, -226.000000)" fill="#BEC4CE">
            <g id="Group---Widget-1" transform="translate(131.000000, 194.000000)">
                <g id="Icon---Bank">
                    <g transform="translate(30.000000, 32.000000)">
                        <path d="M23.7281739,6.32452174 L12.249913,0.0636521739 C12.093913,-0.0208695652 11.906087,-0.0208695652 11.750087,0.0636521739 L0.271826087,6.32452174 C0.104347826,6.41582609 0,6.59165217 0,6.7826087 L0,8.86956522 C0,9.15808696 0.23373913,9.39130435 0.52173913,9.39130435 L23.4782609,9.39130435 C23.7662609,9.39130435 24,9.15808696 24,8.86956522 L24,6.7826087 C24,6.59165217 23.8956522,6.41582609 23.7281739,6.32452174 Z M12,6.7826087 C11.1354783,6.7826087 10.4347826,6.08191304 10.4347826,5.2173913 C10.4347826,4.35286957 11.1354783,3.65217391 12,3.65217391 C12.8645217,3.65217391 13.5652174,4.35286957 13.5652174,5.2173913 C13.5652174,6.08191304 12.8645217,6.7826087 12,6.7826087 Z" id="Shape" fill-rule="nonzero"></path>
                        <rect id="Rectangle" x="14.0869565" y="10.4347826" width="2.08695652" height="9.91304348"></rect>
                        <rect id="Rectangle" x="1.56521739" y="10.4347826" width="2.08695652" height="9.91304348"></rect>
                        <rect id="Rectangle" x="7.82608696" y="10.4347826" width="2.08695652" height="9.91304348"></rect>
                        <rect id="Rectangle" x="20.3478261" y="10.4347826" width="2.08695652" height="9.91304348"></rect>
                        <path d="M23.4782609,21.3913043 L0.52173913,21.3913043 C0.23373913,21.3913043 0,21.6245217 0,21.9130435 L0,23.4782609 C0,23.7667826 0.23373913,24 0.52173913,24 L23.4782609,24 C23.7662609,24 24,23.7667826 24,23.4782609 L24,21.9130435 C24,21.6245217 23.7662609,21.3913043 23.4782609,21.3913043 Z" id="Path"></path>
                    </g>
                </g>
            </g>
        </g>
    </g>
</svg>