<?xml version="1.0" encoding="UTF-8"?>
<svg width="11px" height="21px" viewBox="0 0 11 21" version="1.1" xmlns="http://www.w3.org/2000/svg" xmlns:xlink="http://www.w3.org/1999/xlink">
    <!-- Generator: Sketch 52 (66869) - http://www.bohemiancoding.com/sketch -->
    <title>dollar-symbol</title>
    <desc>Created with Sketch.</desc>
    <g id="Development" stroke="none" stroke-width="1" fill="none" fill-rule="evenodd">
        <g id="Page-2" transform="translate(-540.000000, -691.000000)" fill="#C1C5CB">
            <g id="Group--2" transform="translate(131.000000, 588.000000)">
                <g id="Drop---Dollar" transform="translate(330.000000, 103.000000)">
                    <path d="M89.845353,12.3633207 C89.7435212,12.0312258 89.619261,11.7424249 89.4743812,11.4965703 C89.3287779,11.2514112 89.1204115,11.0116422 88.849101,10.777437 C88.578514,10.5430579 88.3346963,10.3542333 88.1185523,10.210963 C87.9024083,10.0669972 87.6055947,9.90668754 87.2282922,9.72864292 C86.8509898,9.55146767 86.55291,9.41897744 86.332425,9.33204159 C86.1126636,9.24510574 85.7939642,9.1261775 85.3779548,8.97543074 C85.0084299,8.83963695 84.733502,8.73566168 84.5519049,8.6636788 C84.3717547,8.59169591 84.133725,8.4898071 83.8390818,8.35749074 C83.5444386,8.225696 83.3239537,8.10815873 83.1790739,8.00626992 C83.0336515,7.90438111 82.8781001,7.78006284 82.7135051,7.63279352 C82.5481866,7.48535032 82.4324275,7.32851805 82.3651425,7.16212284 C82.2987618,6.99624925 82.2649385,6.81507494 82.2649385,6.61807831 C82.2649385,6.1046352 82.5007977,5.68543054 82.9728779,5.3601166 C83.4440538,5.03549815 84.0532362,4.87327585 84.7998826,4.87327585 C85.129977,4.87327585 85.4662211,4.91674378 85.8082532,5.00367963 C86.1493809,5.09061547 86.4425771,5.18833137 86.6856713,5.29839215 C86.9302125,5.40775744 87.1597411,5.52859827 87.376066,5.6610885 C87.59221,5.79288325 87.7455909,5.89338109 87.8360277,5.96119105 C87.9264645,6.02917488 87.9836206,6.07472926 88.0069533,6.09715871 C88.1093278,6.17244516 88.2145962,6.19904753 88.3249291,6.17661808 C88.4428588,6.16914159 88.5332956,6.10863424 88.5962396,5.9952699 L89.5514334,4.34070685 C89.6453068,4.18926461 89.6255915,4.04599433 89.4921068,3.91002667 C89.4447179,3.86464615 89.3861148,3.81161529 89.3153932,3.75110794 C89.2448525,3.69077446 89.0914717,3.58140916 88.8554316,3.42249044 C88.6195723,3.26426719 88.3701476,3.12221402 88.1073382,2.99720027 C87.8438052,2.87305588 87.5017732,2.74665116 87.0814228,2.61833385 C86.6608916,2.48932105 86.2264331,2.40308069 85.7785899,2.35752631 L85.7785899,0.362696355 C85.7785899,0.256808493 85.7431387,0.169872646 85.672598,0.101888813 C85.6018764,0.0340788521 85.5114396,0 85.4012875,0 L83.8094185,0 C83.7075867,0 83.6193203,0.0359914408 83.5444386,0.107974322 C83.4695569,0.179261717 83.4321161,0.264284976 83.4321161,0.362696355 L83.4321161,2.4023852 C82.1985578,2.62911389 81.1966987,3.13508052 80.4258152,3.92098058 C79.6563787,4.70688064 79.2705752,5.62092414 79.2705752,6.66345882 C79.2705752,6.97329818 79.3045795,7.2680107 79.3709601,7.54707477 C79.4380642,7.8270082 79.5207235,8.0782528 79.6189379,8.30098244 C79.7171523,8.52388595 79.8562441,8.74313816 80.0371177,8.95856519 C80.2179914,9.17381835 80.3890979,9.35847009 80.5500754,9.51338977 C80.7112338,9.66830945 80.9217707,9.82914076 81.1811436,9.99501436 C81.4403355,10.1614096 81.6622675,10.2958124 81.8465777,10.3977012 C82.0317923,10.49959 82.2768761,10.6164318 82.5834569,10.748922 C82.8902187,10.8805429 83.1318658,10.9810407 83.3083985,11.0490246 C83.4858356,11.1170084 83.7274828,11.2114207 84.0340636,11.3322616 C84.4580314,11.4911803 84.7723898,11.6134121 84.9773197,11.7003479 C85.181526,11.7872838 85.440718,11.9081246 85.7552572,12.0630443 C86.0696156,12.217964 86.2991443,12.3598433 86.4447476,12.4881606 C86.5903509,12.6166518 86.7216651,12.774875 86.8397756,12.9643952 C86.9577052,13.1532198 87.0170318,13.3528245 87.0170318,13.5647741 C87.0170318,14.1616756 86.7753846,14.6222618 86.2913667,14.9468802 C85.8082532,15.2721942 85.2486301,15.4345903 84.6119549,15.4345903 C84.3209292,15.4345903 84.0304461,15.4046844 83.7394204,15.3434816 C82.7178461,15.1471804 81.763195,14.6752926 80.8751053,13.9274705 L80.8510492,13.9043455 C80.7805084,13.8214087 80.6857306,13.7875038 80.5685245,13.8024567 C80.4428173,13.8181052 80.3523805,13.8629641 80.297214,13.938946 L79.0826475,15.4684953 C78.9647179,15.6199376 78.9732189,15.7748572 79.1067037,15.9330805 C79.1455915,15.9786349 79.2148661,16.0464448 79.3128997,16.1375536 C79.411114,16.227793 79.5941582,16.3698462 79.8613086,16.5626699 C80.1282781,16.7554936 80.4187611,16.9361463 80.7331195,17.1067144 C81.0474779,17.2764132 81.4466661,17.4441994 81.9299605,17.6105946 C82.4132548,17.7769898 82.9142749,17.8938316 83.4335631,17.9618154 L83.4335631,19.944996 C83.4335631,20.0435812 83.4702804,20.1284306 83.5451621,20.2004135 C83.6200438,20.2717009 83.7083102,20.3076923 83.8108655,20.3076923 L85.402011,20.3076923 C85.5121631,20.3076923 85.6025999,20.2737873 85.6733215,20.2058035 C85.7438622,20.1379935 85.7791326,20.0510577 85.7791326,19.944996 L85.7791326,17.9618154 C87.0291503,17.7655143 88.0451176,17.2499847 88.8272153,16.4145312 C89.6085894,15.5799471 90,14.5848794 90,13.4289803 C89.9992765,13.051331 89.948451,12.6961111 89.845353,12.3633207 Z" id="dollar-symbol"></path>
                </g>
            </g>
        </g>
    </g>
</svg>