<?xml version="1.0" encoding="UTF-8"?>
<svg width="14px" height="14px" viewBox="0 0 14 14" version="1.1" xmlns="http://www.w3.org/2000/svg" xmlns:xlink="http://www.w3.org/1999/xlink">
    <!-- Generator: Sketch 53.2 (72643) - https://sketchapp.com -->
    <title>link</title>
    <desc>Created with Sketch.</desc>
    <g id="Правки" stroke="none" stroke-width="1" fill="none" fill-rule="evenodd">
        <g id="Tablet---Page-7:Edit" transform="translate(-938.000000, -331.000000)" fill="#B0B6BE" fill-rule="nonzero">
            <g id="Group---Widget-3" transform="translate(60.000000, 164.000000)">
                <g id="Bank" transform="translate(0.000000, 157.000000)">
                    <g id="Group-2" transform="translate(860.000000, 0.000000)">
                        <g id="link" transform="translate(18.000000, 10.000000)">
                            <path d="M8.42672727,5.57327273 C8.11490909,5.26145455 7.75727273,5.01454545 7.371,4.82936364 C7.13236364,5.06927273 7,5.38872727 7,5.72727273 C7,5.86281818 7.02545455,5.99136364 7.06490909,6.11418182 C7.22972727,6.21663636 7.38627273,6.33245455 7.52690909,6.47309091 C8.00736364,6.95418182 8.27272727,7.59309091 8.27272727,8.27272727 C8.27272727,8.95236364 8.008,9.59190909 7.52754545,10.073 L5.61845455,11.9814545 C4.65627273,12.9436364 2.98009091,12.9436364 2.01854545,11.9814545 C1.53745455,11.5003636 1.27272727,10.8614545 1.27272727,10.1818182 C1.27272727,9.50218182 1.53745455,8.86327273 2.01790909,8.38218182 L3.35681818,7.04327273 C3.24418182,6.61881818 3.18181818,6.17845455 3.18181818,5.72727273 C3.18181818,5.62418182 3.19009091,5.52172727 3.19645455,5.41990909 C3.13981818,5.47018182 3.08190909,5.51918182 3.02718182,5.57327273 L1.11809091,7.48236364 C0.397090909,8.20336364 0,9.16172727 0,10.1818182 C0,11.2019091 0.397090909,12.1602727 1.11809091,12.8812727 C1.83972727,13.6029091 2.79809091,14 3.81818182,14 C4.83827273,14 5.79663636,13.6029091 6.51827273,12.8812727 L8.42736364,10.9728182 C9.14772727,10.2511818 9.54545455,9.29281818 9.54545455,8.27272727 C9.54545455,7.25263636 9.14772727,6.29427273 8.42672727,5.57327273 Z" id="Path"></path>
                            <path d="M12.8819091,1.11872727 C12.1602727,0.397090909 11.2019091,0 10.1818182,0 C9.16172727,0 8.20336364,0.397090909 7.48172727,1.11872727 L5.57263636,3.02718182 C4.85227273,3.74881818 4.45454545,4.70718182 4.45454545,5.72727273 C4.45454545,6.74736364 4.85163636,7.70572727 5.57263636,8.42672727 C5.88445455,8.73854545 6.24209091,8.98545455 6.62836364,9.17063636 C6.86763636,8.93072727 7,8.61127273 7,8.27272727 C7,8.134 6.97390909,8.00227273 6.93254545,7.87690909 C6.76836364,7.77827273 6.61245455,7.66563636 6.47372727,7.52690909 C5.99263636,7.04581818 5.72727273,6.40690909 5.72727273,5.72727273 C5.72727273,5.04763636 5.992,4.40809091 6.47245455,3.927 L8.38154545,2.01854545 C8.86263636,1.53745455 9.50218182,1.27272727 10.1818182,1.27272727 C10.8614545,1.27272727 11.501,1.53745455 11.9820909,2.01854545 C12.4625455,2.49963636 12.7272727,3.13854545 12.7272727,3.81818182 C12.7272727,4.49781818 12.4625455,5.13672727 11.9820909,5.61781818 L10.6412727,6.95863636 C10.7545455,7.38245455 10.8181818,7.82218182 10.8181818,8.27272727 C10.8181818,8.37581818 10.8105455,8.47763636 10.8048182,8.57945455 C10.8614545,8.52918182 10.9193636,8.48081818 10.9734545,8.42672727 L12.8825455,6.51763636 C13.6029091,5.79663636 14,4.83827273 14,3.81818182 C14,2.79809091 13.6029091,1.83972727 12.8819091,1.11872727 Z" id="Path"></path>
                        </g>
                    </g>
                </g>
            </g>
        </g>
    </g>
</svg>