<?xml version="1.0" encoding="UTF-8"?>
<svg width="14px" height="14px" viewBox="0 0 14 14" version="1.1" xmlns="http://www.w3.org/2000/svg" xmlns:xlink="http://www.w3.org/1999/xlink">
    <!-- Generator: Sketch 53.2 (72643) - https://sketchapp.com -->
    <title>Path</title>
    <desc>Created with Sketch.</desc>
    <g id="Правки" stroke="none" stroke-width="1" fill="none" fill-rule="evenodd">
        <g id="Tablet---Page-7:Edit" transform="translate(-872.000000, -331.000000)" fill="#B0B6BE" fill-rule="nonzero">
            <g id="Group---Widget-3" transform="translate(60.000000, 164.000000)">
                <g id="Bank" transform="translate(0.000000, 157.000000)">
                    <g id="Group-2" transform="translate(794.000000, 0.000000)">
                        <path d="M20.8155556,16.0588889 C21.9355556,18.26 23.74,20.0566667 25.9411111,21.1844444 L27.6522222,19.4733333 C27.8622222,19.2633333 28.1733333,19.1933333 28.4455556,19.2866667 C29.3166667,19.5744444 30.2577778,19.73 31.2222222,19.73 C31.65,19.73 32,20.08 32,20.5077778 L32,23.2222222 C32,23.65 31.65,24 31.2222222,24 C23.9188889,24 18,18.0811111 18,10.7777778 C18,10.35 18.35,10 18.7777778,10 L21.5,10 C21.9277778,10 22.2777778,10.35 22.2777778,10.7777778 C22.2777778,11.75 22.4333333,12.6833333 22.7211111,13.5544444 C22.8066667,13.8266667 22.7444444,14.13 22.5266667,14.3477778 L20.8155556,16.0588889 Z" id="Path"></path>
                    </g>
                </g>
            </g>
        </g>
    </g>
</svg>