<?xml version="1.0" encoding="UTF-8"?>
<svg width="17px" height="17px" viewBox="0 0 17 17" version="1.1" xmlns="http://www.w3.org/2000/svg" xmlns:xlink="http://www.w3.org/1999/xlink">
    <!-- Generator: Sketch 52 (66869) - http://www.bohemiancoding.com/sketch -->
    <title>Shape</title>
    <desc>Created with Sketch.</desc>
    <g id="Development" stroke="none" stroke-width="1" fill="none" fill-rule="evenodd" opacity="0.750999814">
        <g id="Page-5.2" transform="translate(-160.000000, -810.000000)" fill="#BEC4CE" fill-rule="nonzero">
            <g id="Group---Widget-2" transform="translate(131.000000, 576.000000)">
                <g id="Drop---Info" transform="translate(29.000000, 230.000000)">
                    <g id="ic_error_outline_24px" transform="translate(0.000000, 4.000000)">
                        <path d="M7.65,11.05 L9.35,11.05 L9.35,12.75 L7.65,12.75 L7.65,11.05 Z M7.65,4.25 L9.35,4.25 L9.35,9.35 L7.65,9.35 L7.65,4.25 Z M8.4915,0 C3.7995,0 0,3.808 0,8.5 C0,13.192 3.7995,17 8.4915,17 C13.192,17 17,13.192 17,8.5 C17,3.808 13.192,0 8.4915,0 Z M8.5,15.3 C4.743,15.3 1.7,12.257 1.7,8.5 C1.7,4.743 4.743,1.7 8.5,1.7 C12.257,1.7 15.3,4.743 15.3,8.5 C15.3,12.257 12.257,15.3 8.5,15.3 Z" id="Shape"></path>
                    </g>
                </g>
            </g>
        </g>
    </g>
</svg>