<?xml version="1.0" encoding="UTF-8"?>
<svg width="18px" height="18px" viewBox="0 0 18 18" version="1.1" xmlns="http://www.w3.org/2000/svg" xmlns:xlink="http://www.w3.org/1999/xlink">
    <!-- Generator: Sketch 52 (66869) - http://www.bohemiancoding.com/sketch -->
    <title>Path</title>
    <desc>Created with Sketch.</desc>
    <g id="Development" stroke="none" stroke-width="1" fill="none" fill-rule="evenodd">
        <g id="Page-1" transform="translate(-947.000000, -37.000000)" fill="#CDD0D7">
            <path d="M964.46438,42.5183831 L948.029856,37.040214 C947.748904,36.9463026 947.438995,37.0198666 947.22926,37.2296022 C947.019524,37.4393378 946.946742,37.7492456 947.039871,38.0301975 L952.518046,54.4647046 C952.622131,54.7761777 952.909344,54.9898263 953.237252,54.9992174 C953.245078,55 953.252904,55 953.26073,55 C953.580029,55 953.868025,54.8059163 953.987762,54.50853 L956.993715,46.9940472 L964.508206,43.9880976 C964.813418,43.8660127 965.009067,43.5662786 964.999676,43.238371 C964.990285,42.9104635 964.775854,42.6224683 964.46438,42.5183831 Z" id="Path" transform="translate(956.000000, 46.000000) scale(-1, 1) translate(-956.000000, -46.000000) "></path>
        </g>
    </g>
</svg>