<?xml version="1.0" encoding="UTF-8"?>
<svg width="15px" height="15px" viewBox="0 0 15 15" version="1.1" xmlns="http://www.w3.org/2000/svg" xmlns:xlink="http://www.w3.org/1999/xlink">
    <!-- Generator: Sketch 52 (66869) - http://www.bohemiancoding.com/sketch -->
    <title>Path</title>
    <desc>Created with Sketch.</desc>
    <g id="Development" stroke="none" stroke-width="1" fill="none" fill-rule="evenodd" opacity="0.5">
        <g id="Pop-Up:-Реквизиты" transform="translate(-1020.000000, -141.000000)" fill="#BEC4CE">
            <g id="Pop-Up" transform="translate(324.000000, 113.000000)">
                <g id="e-remove" transform="translate(696.000000, 28.000000)">
                    <path d="M14.5738182,0.426181818 C14.0058184,-0.141646456 13.0850907,-0.141646456 12.5170909,0.426181818 L7.72727273,5.216 L2.93745455,0.426181818 C2.36672162,-0.125050487 1.45951305,-0.117167089 0.898445708,0.443900254 C0.337378365,1.0049676 0.329494968,1.91217616 0.880727273,2.48290909 L5.67054545,7.27272727 L0.880727273,12.0625455 C0.502608604,12.4277447 0.350963495,12.9685497 0.484076863,13.4771016 C0.617190231,13.9856535 1.01434654,14.3828098 1.52289844,14.5159231 C2.03145034,14.6490365 2.57225532,14.4973914 2.93745455,14.1192727 L7.72727273,9.32945455 L12.5170909,14.1192727 C13.0878238,14.670505 13.9950324,14.6626216 14.5560997,14.1015543 C15.1171671,13.5404869 15.1250505,12.6332784 14.5738182,12.0625455 L9.784,7.27272727 L14.5738182,2.48290909 C15.1416465,1.91490931 15.1416465,0.994181602 14.5738182,0.426181818 Z" id="Path"></path>
                </g>
            </g>
        </g>
    </g>
</svg>