<?xml version="1.0" encoding="UTF-8"?>
<svg width="14px" height="16px" viewBox="0 0 14 16" version="1.1" xmlns="http://www.w3.org/2000/svg" xmlns:xlink="http://www.w3.org/1999/xlink">
    <!-- Generator: Sketch 53.2 (72643) - https://sketchapp.com -->
    <title>Shape</title>
    <desc>Created with Sketch.</desc>
    <g id="Правки" stroke="none" stroke-width="1" fill="none" fill-rule="evenodd">
        <g id="Page-6.2:Edit" transform="translate(-1216.000000, -231.000000)" fill="#AFB4BE" fill-rule="nonzero">
            <g id="Group---Widget-3" transform="translate(131.000000, 193.000000)">
                <g id="Drop---Title-Table" transform="translate(0.000000, 29.000000)">
                    <g id="xls-file" transform="translate(1085.000000, 9.000000)">
                        <path d="M8.99243064,0 L2.57762319,0 C1.64048033,0 0.877714286,0.76326294 0.877714286,1.69987578 L0.877714286,7.98572257 L0.711652174,7.98572257 C0.333416149,7.98572257 0.026699793,8.29217391 0.026699793,8.6707412 L0.026699793,12.824911 C0.026699793,13.2034451 0.333416149,13.5098634 0.711652174,13.5098634 L0.877714286,13.5098634 L0.877714286,14.2716025 C0.877714286,15.2092422 1.6404472,15.9714783 2.57762319,15.9714783 L11.3302857,15.9714783 C12.2669317,15.9714783 13.0296646,15.2092091 13.0296646,14.2716025 L13.0296646,4.02315528 L8.99243064,0 Z M1.77046791,9.382294 L2.51832712,9.382294 L2.77048447,9.90800828 C2.85608282,10.0829482 2.92034783,10.2243975 2.9887205,10.3867495 L2.99706832,10.3867495 C3.06544099,10.2029979 3.12109317,10.0745342 3.19390476,9.90800828 L3.4374824,9.382294 L4.1811677,9.382294 L3.36904348,10.7882402 L4.22393375,12.2631222 L3.47163561,12.2631222 L3.21086542,11.7415487 C3.10409938,11.5405383 3.03572671,11.3912381 2.95423602,11.2241822 L2.9458882,11.2241822 C2.88583023,11.3912381 2.81331677,11.5405383 2.72347826,11.7415487 L2.48407453,12.2631222 L1.74038923,12.2631222 L2.57391304,10.8054327 L1.77046791,9.382294 Z M11.3302857,14.9304513 L2.57762319,14.9304513 C2.21472464,14.9304513 1.91927122,14.6349648 1.91927122,14.2716025 L1.91927122,13.5098634 L10.0786087,13.5098634 C10.4568447,13.5098634 10.7635942,13.2034451 10.7635942,12.824911 L10.7635942,8.6707412 C10.7635942,8.29217391 10.4568447,7.98572257 10.0786087,7.98572257 L1.91927122,7.98572257 L1.91927122,1.69987578 C1.91927122,1.33754037 2.21475776,1.04205383 2.57762319,1.04205383 L8.6029648,1.03575983 L8.6029648,3.26293996 C8.6029648,3.91347412 9.13079917,4.44180538 9.78176398,4.44180538 L11.9635611,4.43554451 L11.9881077,14.2715694 C11.9881408,14.6349648 11.6931511,14.9304513 11.3302857,14.9304513 Z M6.37551967,11.7160083 L6.37551967,12.2631884 L4.57586749,12.2631884 L4.57586749,9.38232712 L5.22981366,9.38232712 L5.22981366,11.7160083 L6.37551967,11.7160083 Z M7.47942029,11.0535155 C7.00067909,10.8869896 6.68846377,10.6217805 6.68846377,10.2030311 C6.68846377,9.71117184 7.0988323,9.33532091 7.77858385,9.33532091 C8.1035528,9.33532091 8.34265839,9.40369358 8.51392133,9.48048033 L8.36849689,10.0062277 C8.25315114,9.95087371 8.04793375,9.86938302 7.76573085,9.86938302 C7.48356108,9.86938302 7.34681573,9.99787992 7.34681573,10.1472133 C7.34681573,10.3309648 7.5091677,10.4124224 7.88114286,10.5533416 C8.38989648,10.7413333 8.62930021,11.0065424 8.62930021,11.4127371 C8.62930021,11.895619 8.25732505,12.3060207 7.46663354,12.3060207 C7.13742443,12.3060207 6.81242236,12.2203892 6.65007039,12.1305507 L6.78270807,11.5922816 C6.95784679,11.6821201 7.22722981,11.7713954 7.50496066,11.7713954 C7.80412422,11.7713954 7.9623354,11.6476356 7.9623354,11.4596439 C7.9623354,11.2800663 7.82559006,11.1772091 7.47942029,11.0535155 Z" id="Shape"></path>
                    </g>
                </g>
            </g>
        </g>
    </g>
</svg>